<svg width="62" height="62" viewBox="0 0 62 62" fill="none" xmlns="http://www.w3.org/2000/svg">
<path d="M54.25 25.8332C54.25 43.9166 31 59.4166 31 59.4166C31 59.4166 7.75 43.9166 7.75 25.8332C7.75 19.667 10.1995 13.7532 14.5598 9.39302C18.92 5.0328 24.8337 2.58325 31 2.58325C37.1663 2.58325 43.08 5.0328 47.4402 9.39302C51.8004 13.7532 54.25 19.667 54.25 25.8332Z" fill="#F6432A" stroke="#C94B39" stroke-width="4" stroke-linecap="round" stroke-linejoin="round"/>
<path d="M31 37C36.5228 37 41 32.5228 41 27C41 21.4772 36.5228 17 31 17C25.4772 17 21 21.4772 21 27C21 32.5228 25.4772 37 31 37Z" fill="white"/>
</svg>
